<svg width="24" height="24" viewBox="0 0 24 24" fill="none" xmlns="http://www.w3.org/2000/svg">
<path d="M4.71938 11.0306C4.57864 10.8899 4.49958 10.699 4.49958 10.5C4.49958 10.301 4.57864 10.1101 4.71938 9.96937C4.86011 9.82864 5.05098 9.74958 5.25 9.74958C5.44902 9.74958 5.63989 9.82864 5.78062 9.96937L11.25 15.4397V3C11.25 2.80109 11.329 2.61032 11.4697 2.46967C11.6103 2.32902 11.8011 2.25 12 2.25C12.1989 2.25 12.3897 2.32902 12.5303 2.46967C12.671 2.61032 12.75 2.80109 12.75 3V15.4397L18.2194 9.96937C18.2891 9.89969 18.3718 9.84442 18.4628 9.8067C18.5539 9.76899 18.6515 9.74958 18.75 9.74958C18.8485 9.74958 18.9461 9.76899 19.0372 9.8067C19.1282 9.84442 19.2109 9.89969 19.2806 9.96937C19.3503 10.0391 19.4056 10.1218 19.4433 10.2128C19.481 10.3039 19.5004 10.4015 19.5004 10.5C19.5004 10.5985 19.481 10.6961 19.4433 10.7872C19.4056 10.8782 19.3503 10.9609 19.2806 11.0306L12.5306 17.7806C12.461 17.8504 12.3783 17.9057 12.2872 17.9434C12.1962 17.9812 12.0986 18.0006 12 18.0006C11.9014 18.0006 11.8038 17.9812 11.7128 17.9434C11.6217 17.9057 11.539 17.8504 11.4694 17.7806L4.71938 11.0306ZM20.25 19.5H3.75C3.55109 19.5 3.36032 19.579 3.21967 19.7197C3.07902 19.8603 3 20.0511 3 20.25C3 20.4489 3.07902 20.6397 3.21967 20.7803C3.36032 20.921 3.55109 21 3.75 21H20.25C20.4489 21 20.6397 20.921 20.7803 20.7803C20.921 20.6397 21 20.4489 21 20.25C21 20.0511 20.921 19.8603 20.7803 19.7197C20.6397 19.579 20.4489 19.5 20.25 19.5Z" fill="#5A9C46"/>
</svg>
