<svg width="24" height="24" viewBox="0 0 24 24" fill="none" xmlns="http://www.w3.org/2000/svg">
<path d="M20.1253 6.75H18.75V3.75C18.75 3.55109 18.671 3.36032 18.5303 3.21967C18.3897 3.07902 18.1989 3 18 3H6C5.80109 3 5.61032 3.07902 5.46967 3.21967C5.32902 3.36032 5.25 3.55109 5.25 3.75V6.75H3.87469C2.565 6.75 1.5 7.75969 1.5 9V16.5C1.5 16.6989 1.57902 16.8897 1.71967 17.0303C1.86032 17.171 2.05109 17.25 2.25 17.25H5.25V20.25C5.25 20.4489 5.32902 20.6397 5.46967 20.7803C5.61032 20.921 5.80109 21 6 21H18C18.1989 21 18.3897 20.921 18.5303 20.7803C18.671 20.6397 18.75 20.4489 18.75 20.25V17.25H21.75C21.9489 17.25 22.1397 17.171 22.2803 17.0303C22.421 16.8897 22.5 16.6989 22.5 16.5V9C22.5 7.75969 21.435 6.75 20.1253 6.75ZM6.75 4.5H17.25V6.75H6.75V4.5ZM17.25 19.5H6.75V15H17.25V19.5ZM21 15.75H18.75V14.25C18.75 14.0511 18.671 13.8603 18.5303 13.7197C18.3897 13.579 18.1989 13.5 18 13.5H6C5.80109 13.5 5.61032 13.579 5.46967 13.7197C5.32902 13.8603 5.25 14.0511 5.25 14.25V15.75H3V9C3 8.58656 3.39281 8.25 3.87469 8.25H20.1253C20.6072 8.25 21 8.58656 21 9V15.75ZM18.75 10.875C18.75 11.0975 18.684 11.315 18.5604 11.5C18.4368 11.685 18.2611 11.8292 18.0555 11.9144C17.85 11.9995 17.6238 12.0218 17.4055 11.9784C17.1873 11.935 16.9868 11.8278 16.8295 11.6705C16.6722 11.5132 16.565 11.3127 16.5216 11.0945C16.4782 10.8762 16.5005 10.65 16.5856 10.4445C16.6708 10.2389 16.815 10.0632 17 9.9396C17.185 9.81598 17.4025 9.75 17.625 9.75C17.9234 9.75 18.2095 9.86853 18.4205 10.0795C18.6315 10.2905 18.75 10.5766 18.75 10.875Z" fill="#5A9C46"/>
</svg>
