<svg width="214" height="184" viewBox="0 0 214 184" fill="none" xmlns="http://www.w3.org/2000/svg">
<path d="M161.073 25.7298C139.586 13.4819 120.556 23.5651 111.037 34.3021C101.518 45.039 94.4247 55.8842 82.4746 57.8757C70.5244 59.8672 52.393 54.8148 38.8846 64.3049C25.3761 73.795 25.4282 99.0008 36.1238 113.292C46.8195 127.584 74.4919 134.415 106.418 139.009C117.874 140.74 129.565 140.092 140.758 137.108L155.261 131.857C162.345 128.631 168.283 124.999 173.31 122.051C180.958 117.548 183.654 106.573 185.116 98.5332C187.24 86.4855 187.056 74.1455 184.574 62.1662C181.37 47.0738 174.065 33.1288 161.073 25.7298Z" fill="#5A9C46"/>
<path opacity="0.8" d="M161.073 25.7298C139.586 13.4819 120.556 23.5651 111.037 34.3021C101.518 45.039 94.4247 55.8842 82.4746 57.8757C70.5244 59.8672 52.393 54.8148 38.8846 64.3049C25.3761 73.795 25.4282 99.0008 36.1238 113.292C46.8195 127.584 74.4919 134.415 106.418 139.009C117.874 140.74 129.565 140.092 140.758 137.108L155.261 131.857C162.345 128.631 168.283 124.999 173.31 122.051C180.958 117.548 183.654 106.573 185.116 98.5332C187.24 86.4855 187.056 74.1455 184.574 62.1662C181.37 47.0738 174.065 33.1288 161.073 25.7298Z" fill="white"/>
<path opacity="0.8" d="M193.919 40.7314C193.433 32.7306 187.955 30.107 184.483 33.9169C183.658 34.8463 183.105 35.9842 182.885 37.2061C182.665 38.4279 182.787 39.6865 183.237 40.844C184.457 44.13 186.553 49.9617 187.803 54.5249C189.644 61.2615 189.027 66.4654 191.176 63.7119C193.325 60.9584 194.531 50.8362 193.919 40.7314Z" fill="#5A9C46"/>
<path opacity="0.8" d="M193.919 40.7314C193.433 32.7306 187.955 30.107 184.483 33.9169C183.658 34.8463 183.105 35.9842 182.885 37.2061C182.665 38.4279 182.787 39.6865 183.237 40.844C184.457 44.13 186.553 49.9617 187.803 54.5249C189.644 61.2615 189.027 66.4654 191.176 63.7119C193.325 60.9584 194.531 50.8362 193.919 40.7314Z" fill="white"/>
<path d="M101.218 39.5061C104.591 38.8956 108.888 30.9339 114.414 27.5656C119.94 24.1973 115.03 21.7468 109.822 24.1973C109.822 24.1973 105.828 25.1151 102.759 31.2412C99.6902 37.3674 97.841 40.1165 101.218 39.5061Z" fill="#5A9C46"/>
<path opacity="0.8" d="M101.218 39.5061C104.591 38.8956 108.888 30.9339 114.414 27.5656C119.94 24.1973 115.03 21.7468 109.822 24.1973C109.822 24.1973 105.828 25.1151 102.759 31.2412C99.6902 37.3674 97.841 40.1165 101.218 39.5061Z" fill="white"/>
<path d="M95.6921 35.2201C98.4312 34.1248 101.418 26.6869 98.2966 27.0678C97.9023 27.1249 97.5293 27.2823 97.2138 27.525C96.8982 27.7677 96.6508 28.0874 96.4952 28.4533C95.4968 30.6656 93.2266 36.2029 95.6921 35.2201Z" fill="#5A9C46"/>
<path opacity="0.8" d="M95.6921 35.2201C98.4312 34.1248 101.418 26.6869 98.2966 27.0678C97.9023 27.1249 97.5293 27.2823 97.2138 27.525C96.8982 27.7677 96.6508 28.0874 96.4952 28.4533C95.4968 30.6656 93.2266 36.2029 95.6921 35.2201Z" fill="white"/>
<path d="M112.417 173.692C160.92 173.692 200.24 172.234 200.24 170.436C200.24 168.638 160.92 167.181 112.417 167.181C63.9142 167.181 24.5947 168.638 24.5947 170.436C24.5947 172.234 63.9142 173.692 112.417 173.692Z" fill="#5A9C46"/>
<path opacity="0.8" d="M112.417 173.692C160.92 173.692 200.24 172.234 200.24 170.436C200.24 168.638 160.92 167.181 112.417 167.181C63.9142 167.181 24.5947 168.638 24.5947 170.436C24.5947 172.234 63.9142 173.692 112.417 173.692Z" fill="white"/>
<path d="M41.9232 115.664C41.9232 115.664 51.6682 102.36 46.9151 99.2126C41.9709 95.9612 39.6486 105.811 38.6025 110.647C36.3713 120.968 37.0007 123.159 38.4983 120.89L41.9232 115.664Z" fill="#5A9C46"/>
<path opacity="0.5" d="M41.9232 115.664C41.9232 115.664 51.6682 102.36 46.9151 99.2126C41.9709 95.9612 39.6486 105.811 38.6025 110.647C36.3713 120.968 37.0007 123.159 38.4983 120.89L41.9232 115.664Z" fill="white"/>
<path d="M45.578 123.846C45.578 123.846 59.1255 114.417 55.6486 109.923C52.0327 105.243 46.6285 113.82 44.0631 118.045C38.5893 127.085 38.4765 129.362 40.6295 127.7L45.578 123.846Z" fill="#5A9C46"/>
<path opacity="0.5" d="M45.578 123.846C45.578 123.846 59.1255 114.417 55.6486 109.923C52.0327 105.243 46.6285 113.82 44.0631 118.045C38.5893 127.085 38.4765 129.362 40.6295 127.7L45.578 123.846Z" fill="white"/>
<path d="M45.8733 134.783C45.8733 134.783 57.5934 129.531 55.5923 125.592C53.5087 121.492 48.1305 127.258 45.5564 130.124C40.0567 136.246 39.64 137.969 41.5282 137.013L45.8733 134.783Z" fill="#5A9C46"/>
<path opacity="0.5" d="M45.8733 134.783C45.8733 134.783 57.5934 129.531 55.5923 125.592C53.5087 121.492 48.1305 127.258 45.5564 130.124C40.0567 136.246 39.64 137.969 41.5282 137.013L45.8733 134.783Z" fill="white"/>
<path d="M46.5678 145.766C46.5678 145.766 58.2879 140.515 56.2912 136.575C54.2033 132.479 48.8294 138.242 46.251 141.112C40.7556 147.234 40.3345 148.957 42.2271 147.996L46.5678 145.766Z" fill="#5A9C46"/>
<path opacity="0.5" d="M46.5678 145.766C46.5678 145.766 58.2879 140.515 56.2912 136.575C54.2033 132.479 48.8294 138.242 46.251 141.112C40.7556 147.234 40.3345 148.957 42.2271 147.996L46.5678 145.766Z" fill="white"/>
<path d="M32.8206 121.223C32.8206 121.223 19.9372 110.906 16.5904 115.495C13.1178 120.257 22.8672 123.041 27.6638 124.305C37.8993 127.002 40.1218 126.47 37.9167 124.877L32.8206 121.223Z" fill="#5A9C46"/>
<path opacity="0.5" d="M32.8206 121.223C32.8206 121.223 19.9372 110.906 16.5904 115.495C13.1178 120.257 22.8672 123.041 27.6638 124.305C37.8993 127.002 40.1218 126.47 37.9167 124.877L32.8206 121.223Z" fill="white"/>
<path d="M33.2025 129.843C33.2025 129.843 18.522 122.284 16.1563 127.449C13.6951 132.822 23.8091 133.601 28.7445 133.887C39.3143 134.502 41.3892 133.54 38.9106 132.415L33.2025 129.843Z" fill="#5A9C46"/>
<path opacity="0.5" d="M33.2025 129.843C33.2025 129.843 18.522 122.284 16.1563 127.449C13.6951 132.822 23.8091 133.601 28.7445 133.887C39.3143 134.502 41.3892 133.54 38.9106 132.415L33.2025 129.843Z" fill="white"/>
<path d="M34.9778 139.506C34.9778 139.506 22.3896 133.445 20.51 137.874C18.5524 142.476 27.121 142.9 31.3186 143.026C40.2692 143.303 42.0012 142.437 39.8786 141.571L34.9778 139.506Z" fill="#5A9C46"/>
<path opacity="0.5" d="M34.9778 139.506C34.9778 139.506 22.3896 133.445 20.51 137.874C18.5524 142.476 27.121 142.9 31.3186 143.026C40.2692 143.303 42.0012 142.437 39.8786 141.571L34.9778 139.506Z" fill="white"/>
<path d="M35.5942 147.313C35.5942 147.313 23.7179 139.953 21.3782 144.156C18.943 148.525 27.4205 149.854 31.579 150.425C40.4515 151.646 42.2616 150.975 40.2605 149.863L35.5942 147.313Z" fill="#5A9C46"/>
<path opacity="0.5" d="M35.5942 147.313C35.5942 147.313 23.7179 139.953 21.3782 144.156C18.943 148.525 27.4205 149.854 31.579 150.425C40.4515 151.646 42.2616 150.975 40.2605 149.863L35.5942 147.313Z" fill="white"/>
<path d="M34.4699 108.153C34.4699 108.153 32.2387 88.8305 24.9202 90.8047C17.3195 92.8655 23.6831 102.641 26.9126 107.369C33.7754 117.431 36.3017 118.539 35.7591 115.396L34.4699 108.153Z" fill="#5A9C46"/>
<path opacity="0.5" d="M34.4699 108.153C34.4699 108.153 32.2387 88.8305 24.9202 90.8047C17.3195 92.8655 23.6831 102.641 26.9126 107.369C33.7754 117.431 36.3017 118.539 35.7591 115.396L34.4699 108.153Z" fill="white"/>
<path d="M26.418 97.8447C26.418 97.8447 37.5564 118.661 39.284 128.324C41.2721 139.424 41.5933 151.824 40.2216 161.539" stroke="#5A9C46" stroke-width="1.25197" stroke-linecap="round" stroke-linejoin="round"/>
<path d="M37.5259 121.894L42.9822 105.226" stroke="#5A9C46" stroke-width="1.25197" stroke-linecap="round" stroke-linejoin="round"/>
<path d="M39.2839 128.323L49.5542 115.443" stroke="#5A9C46" stroke-width="1.25197" stroke-linecap="round" stroke-linejoin="round"/>
<path d="M38.6286 125.981L23.7571 119.751" stroke="#5A9C46" stroke-width="1.25197" stroke-linecap="round" stroke-linejoin="round"/>
<path d="M40.5732 137.047L51.7551 128.501" stroke="#5A9C46" stroke-width="1.25197" stroke-linecap="round" stroke-linejoin="round"/>
<path d="M39.9784 133.381L28.2974 130.956" stroke="#5A9C46" stroke-width="1.25197" stroke-linecap="round" stroke-linejoin="round"/>
<path d="M40.5384 142.303L31.4922 140.874" stroke="#5A9C46" stroke-width="1.25197" stroke-linecap="round" stroke-linejoin="round"/>
<path d="M41.3025 148.078L47.3882 142.641" stroke="#5A9C46" stroke-width="1.25197" stroke-linecap="round" stroke-linejoin="round"/>
<path d="M41.1808 150.524L30.7847 147.918" stroke="#5A9C46" stroke-width="1.25197" stroke-linecap="round" stroke-linejoin="round"/>
<path d="M33.4802 153.698H45.7689V156.235H44.6968L42.4786 170.076H36.7705L34.5524 156.235H33.4802V153.698Z" fill="#5A9C46"/>
<path opacity="0.5" d="M33.4802 153.698H45.7689V156.235H44.6968L42.4786 170.076H36.7705L34.5524 156.235H33.4802V153.698Z" fill="white"/>
<path d="M162.896 132.047L51.5682 115.777C51.2143 115.725 50.8957 115.534 50.6825 115.248C50.4692 114.961 50.3788 114.602 50.431 114.249L59.7028 51.165C59.7283 50.9904 59.7881 50.8225 59.8787 50.671C59.9694 50.5194 60.0891 50.3872 60.231 50.2818C60.3729 50.1765 60.5343 50.1001 60.7058 50.057C60.8774 50.0139 61.0558 50.005 61.2308 50.0307L63.3404 50.3381C63.6076 50.3781 63.8807 50.3367 64.1239 50.2193C64.3671 50.1018 64.5691 49.9139 64.7034 49.68L67.5032 44.8527C67.5882 44.7012 67.7035 44.5686 67.8418 44.4631C68.4972 43.9904 69.3118 43.7916 70.112 43.9089L98.1751 48.0132C98.8046 48.1034 99.3911 48.3845 99.855 48.8185C99.9787 48.9421 100.076 49.0894 100.141 49.2514L102.637 55.4165C102.725 55.6346 102.869 55.8258 103.054 55.971C103.239 56.1161 103.459 56.2101 103.692 56.2434L172.559 66.3136C172.912 66.3651 173.231 66.5544 173.445 66.8401C173.659 67.1258 173.751 67.4846 173.7 67.8376L164.428 130.917C164.375 131.269 164.183 131.586 163.896 131.798C163.609 132.01 163.249 132.099 162.896 132.047Z" fill="#263238" stroke="#263238" stroke-miterlimit="10"/>
<path d="M164.081 131.74H53.7342C53.4138 131.74 53.0966 131.677 52.8006 131.555C52.5047 131.433 52.2357 131.253 52.0092 131.027C51.7827 130.802 51.603 130.533 51.4804 130.238C51.3578 129.943 51.2947 129.627 51.2947 129.307V67.7255C51.2947 67.0801 51.5517 66.4613 52.0092 66.005C52.4667 65.5487 53.0872 65.2923 53.7342 65.2923H54.0337C54.5221 65.2914 54.9991 65.145 55.4036 64.8719C55.808 64.5989 56.1215 64.2116 56.3039 63.7597L57.9838 59.5472C58.1716 59.061 58.5149 58.6501 58.9605 58.3783C59.4392 58.0964 59.9846 57.9469 60.5405 57.9453H88.9031C89.2843 57.9449 89.6623 58.0139 90.0187 58.1488C90.5137 58.3478 90.9268 58.7078 91.1907 59.1705L94.0773 64.0758C94.2924 64.4421 94.5999 64.746 94.9693 64.9571C95.3386 65.1683 95.7569 65.2794 96.1826 65.2793H164.081C164.728 65.2793 165.348 65.5357 165.806 65.992C166.263 66.4483 166.52 67.0672 166.52 67.7125V129.307C166.52 129.627 166.457 129.943 166.335 130.238C166.212 130.533 166.032 130.802 165.806 131.027C165.579 131.253 165.31 131.433 165.015 131.555C164.719 131.677 164.401 131.74 164.081 131.74Z" fill="#5A9C46"/>
<mask id="mask0_64_3339" style="mask-type:luminance" maskUnits="userSpaceOnUse" x="51" y="57" width="116" height="75">
<path d="M164.081 131.74H53.7342C53.4138 131.74 53.0966 131.677 52.8006 131.555C52.5047 131.433 52.2357 131.253 52.0092 131.027C51.7827 130.802 51.603 130.533 51.4804 130.238C51.3578 129.943 51.2947 129.627 51.2947 129.307V67.7255C51.2947 67.0801 51.5517 66.4613 52.0092 66.005C52.4667 65.5487 53.0872 65.2923 53.7342 65.2923H54.0337C54.5221 65.2914 54.9991 65.145 55.4036 64.8719C55.808 64.5989 56.1215 64.2116 56.3039 63.7597L57.9838 59.5472C58.1716 59.061 58.5149 58.6501 58.9605 58.3783C59.4392 58.0964 59.9846 57.9469 60.5405 57.9453H88.9031C89.2843 57.9449 89.6623 58.0139 90.0187 58.1488C90.5137 58.3478 90.9268 58.7078 91.1907 59.1705L94.0773 64.0758C94.2924 64.4421 94.5999 64.746 94.9693 64.9571C95.3386 65.1683 95.7569 65.2794 96.1826 65.2793H164.081C164.728 65.2793 165.348 65.5357 165.806 65.992C166.263 66.4483 166.52 67.0672 166.52 67.7125V129.307C166.52 129.627 166.457 129.943 166.335 130.238C166.212 130.533 166.032 130.802 165.806 131.027C165.579 131.253 165.31 131.433 165.015 131.555C164.719 131.677 164.401 131.74 164.081 131.74Z" fill="white"/>
</mask>
<g mask="url(#mask0_64_3339)">
<path opacity="0.1" d="M164.081 131.74H53.7342C53.4138 131.74 53.0966 131.677 52.8006 131.555C52.5047 131.433 52.2357 131.253 52.0092 131.027C51.7827 130.802 51.603 130.533 51.4804 130.238C51.3578 129.943 51.2947 129.627 51.2947 129.307V67.7255C51.2947 67.0801 51.5517 66.4613 52.0092 66.005C52.4667 65.5487 53.0872 65.2923 53.7342 65.2923H54.0337C54.5221 65.2914 54.9991 65.145 55.4036 64.8719C55.808 64.5989 56.1215 64.2116 56.3039 63.7597L57.9838 59.5472C58.1716 59.061 58.5149 58.6501 58.9605 58.3783C59.4392 58.0964 59.9846 57.9469 60.5405 57.9453H88.9031C89.2843 57.9449 89.6623 58.0139 90.0187 58.1488C90.5137 58.3478 90.9268 58.7078 91.1907 59.1705L94.0773 64.0758C94.2924 64.4421 94.5999 64.746 94.9693 64.9571C95.3386 65.1683 95.7569 65.2794 96.1826 65.2793H164.081C164.728 65.2793 165.348 65.5357 165.806 65.992C166.263 66.4483 166.52 67.0672 166.52 67.7125V129.307C166.52 129.627 166.457 129.943 166.335 130.238C166.212 130.533 166.032 130.802 165.806 131.027C165.579 131.253 165.31 131.433 165.015 131.555C164.719 131.677 164.401 131.74 164.081 131.74Z" fill="#263238"/>
</g>
<path d="M164.081 131.74H53.7342C53.4138 131.74 53.0966 131.677 52.8006 131.555C52.5047 131.433 52.2357 131.253 52.0092 131.027C51.7827 130.802 51.603 130.533 51.4804 130.238C51.3578 129.943 51.2947 129.627 51.2947 129.307V67.7255C51.2947 67.0801 51.5517 66.4613 52.0092 66.005C52.4667 65.5487 53.0872 65.2923 53.7342 65.2923H54.0337C54.5221 65.2914 54.9991 65.145 55.4036 64.8719C55.808 64.5989 56.1215 64.2116 56.3039 63.7597L57.9838 59.5472C58.1716 59.061 58.5149 58.6501 58.9605 58.3783C59.4392 58.0964 59.9846 57.9469 60.5405 57.9453H88.9031C89.2843 57.9449 89.6623 58.0139 90.0187 58.1488C90.5137 58.3478 90.9268 58.7078 91.1907 59.1705L94.0773 64.0758C94.2924 64.4421 94.5999 64.746 94.9693 64.9572C95.3386 65.1683 95.7569 65.2794 96.1826 65.2793H164.081C164.728 65.2793 165.348 65.5357 165.806 65.992C166.263 66.4483 166.52 67.0672 166.52 67.7125V129.307C166.52 129.627 166.457 129.943 166.335 130.238C166.212 130.533 166.032 130.802 165.806 131.027C165.579 131.253 165.31 131.433 165.015 131.555C164.719 131.677 164.401 131.74 164.081 131.74Z" stroke="#263238" stroke-miterlimit="10"/>
<path d="M82.4745 65.0836H64.8163C64.3949 65.0836 63.9908 64.9167 63.6929 64.6195C63.3949 64.3223 63.2275 63.9193 63.2275 63.499C63.227 63.2906 63.2676 63.0841 63.3472 62.8913C63.4268 62.6986 63.5438 62.5234 63.6913 62.3758C63.8389 62.2282 64.0142 62.1111 64.2073 62.0312C64.4003 61.9513 64.6073 61.9102 64.8163 61.9102H82.4745C82.897 61.9102 83.3022 62.0776 83.601 62.3755C83.8997 62.6735 84.0676 63.0776 84.0676 63.499C84.0676 63.7075 84.0263 63.9139 83.9462 64.1064C83.8661 64.299 83.7487 64.4738 83.6007 64.621C83.4527 64.7682 83.2771 64.8849 83.0838 64.9642C82.8906 65.0436 82.6835 65.0842 82.4745 65.0836Z" fill="white"/>
<path d="M164.081 142.485H53.7342C53.0872 142.485 52.4667 142.228 52.0092 141.772C51.5517 141.316 51.2947 140.697 51.2947 140.052V78.4701C51.2947 77.8248 51.5517 77.206 52.0092 76.7497C52.4667 76.2934 53.0872 76.037 53.7342 76.037H54.0337C54.5222 76.0366 54.9995 75.8905 55.4041 75.6174C55.8086 75.3442 56.122 74.9566 56.3039 74.5044L57.9838 70.2962C58.1704 69.8094 58.514 69.3982 58.9605 69.1273C59.4384 68.8436 59.9843 68.694 60.5405 68.6943H88.9031C89.2843 68.6939 89.6623 68.7629 90.0187 68.8978C90.515 69.097 90.9284 69.4589 91.1907 69.9239L94.0773 74.8334C94.2924 75.1998 94.5999 75.5037 94.9693 75.7148C95.3386 75.926 95.7569 76.0371 96.1826 76.037H164.081C164.728 76.037 165.348 76.2934 165.806 76.7497C166.263 77.206 166.52 77.8248 166.52 78.4701V140.052C166.52 140.697 166.263 141.316 165.806 141.772C165.348 142.228 164.728 142.485 164.081 142.485Z" fill="#263238" stroke="#263238" stroke-miterlimit="10"/>
<path d="M90.9348 52.3862L73.4154 50.2215C72.997 50.1685 72.6165 49.9526 72.3571 49.6208C72.0977 49.2891 71.9804 48.8685 72.0307 48.4508C72.0838 48.0329 72.3011 47.6531 72.6348 47.3949C72.9685 47.1367 73.3914 47.0213 73.8104 47.074L91.3254 49.2387C91.7444 49.2906 92.1255 49.5063 92.3852 49.8383C92.6448 50.1703 92.7617 50.5915 92.7101 51.0095C92.6844 51.2162 92.618 51.4158 92.5148 51.597C92.4116 51.7781 92.2736 51.9372 92.1087 52.065C91.9438 52.1929 91.7552 52.2871 91.5538 52.3422C91.3524 52.3973 91.142 52.4123 90.9348 52.3862Z" fill="#5A9C46"/>
<path opacity="0.5" d="M90.9348 52.3862L73.4154 50.2215C72.997 50.1685 72.6165 49.9526 72.3571 49.6208C72.0977 49.2891 71.9804 48.8685 72.0307 48.4508C72.0838 48.0329 72.3011 47.6531 72.6348 47.3949C72.9685 47.1367 73.3914 47.0213 73.8104 47.074L91.3254 49.2387C91.7444 49.2906 92.1255 49.5063 92.3852 49.8383C92.6448 50.1703 92.7617 50.5915 92.7101 51.0095C92.6844 51.2162 92.618 51.4158 92.5148 51.597C92.4116 51.7781 92.2736 51.9372 92.1087 52.065C91.9438 52.1929 91.7552 52.2871 91.5538 52.3422C91.3524 52.3973 91.142 52.4123 90.9348 52.3862Z" fill="white"/>
<path d="M82.4745 75.834H64.8163C64.6073 75.834 64.4003 75.7929 64.2073 75.713C64.0142 75.6331 63.8389 75.516 63.6913 75.3684C63.5438 75.2208 63.4268 75.0456 63.3472 74.8529C63.2676 74.6601 63.227 74.4536 63.2275 74.2451C63.2275 73.8245 63.3948 73.421 63.6926 73.1232C63.9904 72.8253 64.3945 72.6574 64.8163 72.6562H82.4745C82.897 72.6563 83.3022 72.8236 83.601 73.1216C83.8997 73.4196 84.0676 73.8237 84.0676 74.2451C84.0676 74.6665 83.8997 75.0707 83.601 75.3687C83.3022 75.6666 82.897 75.834 82.4745 75.834Z" fill="#5A9C46"/>
<path opacity="0.5" d="M82.4745 75.834H64.8163C64.6073 75.834 64.4003 75.7929 64.2073 75.713C64.0142 75.6331 63.8389 75.516 63.6913 75.3684C63.5438 75.2208 63.4268 75.0456 63.3472 74.8529C63.2676 74.6601 63.227 74.4536 63.2275 74.2451C63.2275 73.8245 63.3948 73.421 63.6926 73.1232C63.9904 72.8253 64.3945 72.6574 64.8163 72.6562H82.4745C82.897 72.6563 83.3022 72.8236 83.601 73.1216C83.8997 73.4196 84.0676 73.8237 84.0676 74.2451C84.0676 74.6665 83.8997 75.0707 83.601 75.3687C83.3022 75.6666 82.897 75.834 82.4745 75.834Z" fill="white"/>
<path d="M167.688 94.5586H50.1228C48.8594 94.5586 47.8352 95.5801 47.8352 96.8402V167.795C47.8352 169.055 48.8594 170.077 50.1228 170.077H167.688C168.952 170.077 169.976 169.055 169.976 167.795V96.8402C169.976 95.5801 168.952 94.5586 167.688 94.5586Z" fill="white"/>
<mask id="mask1_64_3339" style="mask-type:luminance" maskUnits="userSpaceOnUse" x="47" y="94" width="123" height="77">
<path d="M167.688 94.5586H50.1228C48.8594 94.5586 47.8352 95.5801 47.8352 96.8402V167.795C47.8352 169.055 48.8594 170.077 50.1228 170.077H167.688C168.952 170.077 169.976 169.055 169.976 167.795V96.8402C169.976 95.5801 168.952 94.5586 167.688 94.5586Z" fill="white"/>
</mask>
<g mask="url(#mask1_64_3339)">
<g style="mix-blend-mode:multiply">
<path d="M169.976 114.885C156.437 127.505 141.054 138.001 124.354 146.013C99.6771 157.785 71.4708 165.898 55.0366 170.076H167.684C167.985 170.077 168.283 170.018 168.561 169.904C168.839 169.789 169.091 169.621 169.304 169.409C169.517 169.197 169.686 168.946 169.801 168.669C169.917 168.392 169.976 168.095 169.976 167.795V114.885Z" fill="#5A9C46"/>
</g>
<path opacity="0.2" d="M169.976 114.885C156.437 127.505 141.054 138.001 124.354 146.013C99.6771 157.785 71.4708 165.898 55.0366 170.076H167.684C167.985 170.077 168.283 170.018 168.561 169.904C168.839 169.789 169.091 169.621 169.304 169.409C169.517 169.197 169.686 168.946 169.801 168.669C169.917 168.392 169.976 168.095 169.976 167.795V114.885Z" fill="white"/>
</g>
<path d="M167.688 94.5586H50.1228C48.8594 94.5586 47.8352 95.5801 47.8352 96.8402V167.795C47.8352 169.055 48.8594 170.077 50.1228 170.077H167.688C168.952 170.077 169.976 169.055 169.976 167.795V96.8402C169.976 95.5801 168.952 94.5586 167.688 94.5586Z" stroke="#263238" stroke-miterlimit="10"/>
<path d="M49.6018 101.191V98.1605C49.603 97.555 49.8449 96.9747 50.2746 96.5469C50.7043 96.1191 51.2866 95.8789 51.8937 95.8789H56.8639" stroke="#263238" stroke-miterlimit="10"/>
<path d="M49.6018 147.218V104.885" stroke="#263238" stroke-miterlimit="10"/>
<path d="M168.205 161.66V166.453C168.205 166.753 168.147 167.05 168.032 167.327C167.917 167.605 167.749 167.857 167.536 168.069C167.324 168.281 167.071 168.45 166.794 168.565C166.516 168.68 166.218 168.739 165.917 168.739H161.911" stroke="#263238" stroke-miterlimit="10"/>
<path d="M168.205 100.126V158.097" stroke="#263238" stroke-miterlimit="10"/>
<path d="M127.063 122.172H90.7436C90.0891 122.172 89.5586 122.701 89.5586 123.354V141.836C89.5586 142.489 90.0891 143.018 90.7436 143.018H127.063C127.717 143.018 128.248 142.489 128.248 141.836V123.354C128.248 122.701 127.717 122.172 127.063 122.172Z" fill="#263238" stroke="#263238" stroke-miterlimit="10"/>
<path d="M127.063 122.172H90.7436C90.0891 122.172 89.5586 122.701 89.5586 123.354V127.328C89.5586 127.981 90.0891 128.51 90.7436 128.51H127.063C127.717 128.51 128.248 127.981 128.248 127.328V123.354C128.248 122.701 127.717 122.172 127.063 122.172Z" fill="white" stroke="#263238" stroke-miterlimit="10"/>
</svg>
