<svg width="28" height="28" viewBox="0 0 28 28" fill="none" xmlns="http://www.w3.org/2000/svg">
<path fill-rule="evenodd" clip-rule="evenodd" d="M15.3591 13.9923L15.3574 13.5792C15.3432 11.9406 15.2444 10.4787 15.074 9.55223C15.074 9.53552 14.8882 8.61667 14.7699 8.31081C14.584 7.86874 14.2481 7.49348 13.8268 7.25574C13.4895 7.0861 13.1357 7 12.7653 7C12.4742 7.01349 11.9941 7.16 11.6514 7.28282L11.3666 7.39196C9.48047 8.14118 5.87488 10.5893 4.49399 12.0865L4.39218 12.1911L3.93781 12.6815C3.65145 13.0567 3.5 13.5155 3.5 14.009C3.5 14.4511 3.63491 14.8932 3.90472 15.2504C3.9855 15.3662 4.11561 15.5146 4.23142 15.6401L4.67366 16.103C6.19553 17.645 9.49065 19.8079 11.1986 20.5245C11.1986 20.5399 12.2601 20.9833 12.7653 21H12.8328C13.6079 21 14.332 20.5579 14.7024 19.8434C14.8036 19.6481 14.9006 19.2654 14.9745 18.9294L15.1071 18.2948C15.2586 17.2745 15.3591 15.7092 15.3591 13.9923ZM22.7462 15.7714C23.7147 15.7714 24.5 14.9785 24.5 14.0005C24.5 13.0225 23.7147 12.2296 22.7462 12.2296L18.4304 12.6113C17.6706 12.6113 17.0546 13.232 17.0546 14.0005C17.0546 14.7677 17.6706 15.3897 18.4304 15.3897L22.7462 15.7714Z" fill="#130F26"/>
</svg>
