<svg width="24" height="24" viewBox="0 0 24 24" fill="none" xmlns="http://www.w3.org/2000/svg">
<g clip-path="url(#clip0_17_1068)">
<path d="M6.25 12.75C6.25 12.3358 6.58579 12 7 12H12.5C12.9142 12 13.25 12.3358 13.25 12.75C13.25 13.1642 12.9142 13.5 12.5 13.5H7C6.58579 13.5 6.25 13.1642 6.25 12.75Z" fill="#222222"/>
<path d="M7 9C6.58579 9 6.25 9.33579 6.25 9.75C6.25 10.1642 6.58579 10.5 7 10.5H17C17.4142 10.5 17.75 10.1642 17.75 9.75C17.75 9.33579 17.4142 9 17 9H7Z" fill="#222222"/>
<path fill-rule="evenodd" clip-rule="evenodd" d="M2.25 7C2.25 4.92893 3.92893 3.25 6 3.25H18C20.0711 3.25 21.75 4.92893 21.75 7V15C21.75 17.0711 20.0711 18.75 18 18.75H12.4314L7.63226 22.2403C6.6408 22.9613 5.25 22.2531 5.25 21.0272L5.25 18.675C3.53832 18.3275 2.25 16.8142 2.25 15V7ZM6 4.75C4.75736 4.75 3.75 5.75736 3.75 7V15C3.75 16.2426 4.75736 17.25 6 17.25C6.19891 17.25 6.38968 17.329 6.53033 17.4697C6.67098 17.6103 6.75 17.8011 6.75 18L6.75 21.0272L11.7464 17.3934C11.8746 17.3002 12.029 17.25 12.1875 17.25H18C19.2426 17.25 20.25 16.2426 20.25 15V7C20.25 5.75736 19.2426 4.75 18 4.75H6Z" fill="#222222"/>
</g>
<defs>
<clipPath id="clip0_17_1068">
<rect width="24" height="24" fill="white"/>
</clipPath>
</defs>
</svg>
