<svg width="24" height="24" viewBox="0 0 24 24" fill="none" xmlns="http://www.w3.org/2000/svg">
<g clip-path="url(#clip0_16_1279)">
<path fill-rule="evenodd" clip-rule="evenodd" d="M12 7.62262C9.5825 7.62262 7.62277 9.58235 7.62277 11.9998C7.62277 14.4173 9.5825 16.377 12 16.377C14.4174 16.377 16.3771 14.4173 16.3771 11.9998C16.3771 9.58235 14.4174 7.62262 12 7.62262ZM9.12277 11.9998C9.12277 10.4108 10.4109 9.12262 12 9.12262C13.589 9.12262 14.8771 10.4108 14.8771 11.9998C14.8771 13.5888 13.589 14.877 12 14.877C10.4109 14.877 9.12277 13.5888 9.12277 11.9998Z" fill="#222222"/>
<path fill-rule="evenodd" clip-rule="evenodd" d="M11.1652 2.00049C10.0164 2.00049 9.06087 2.88402 8.97104 4.02927L8.93002 4.55228C8.90997 4.808 8.73107 5.08103 8.40681 5.25407C8.253 5.33616 8.10234 5.42333 7.95507 5.51538C7.64381 5.70991 7.318 5.72849 7.08639 5.61794L6.61196 5.39149C5.57523 4.89666 4.3323 5.28241 3.75791 6.27728L2.92314 7.72315C2.34875 8.71801 2.63614 9.9873 3.58305 10.6377L4.0169 10.9357C4.2283 11.0809 4.37508 11.3719 4.36272 11.7377C4.35979 11.8248 4.35831 11.9121 4.35831 11.9998C4.35831 12.0875 4.35979 12.1749 4.36273 12.2619C4.37508 12.6278 4.22831 12.9187 4.0169 13.0639L3.58293 13.362C2.63603 14.0124 2.34863 15.2817 2.92302 16.2766L3.75779 17.7225C4.33218 18.7173 5.57511 19.1031 6.61184 18.6082L7.08645 18.3817C7.31807 18.2712 7.64387 18.2897 7.95513 18.4843C8.10238 18.5763 8.25302 18.6635 8.40681 18.7455C8.73107 18.9186 8.90997 19.1916 8.93002 19.4473L8.97104 19.9703C9.06087 21.1156 10.0164 21.9991 11.1652 21.9991H12.8347C13.9835 21.9991 14.939 21.1156 15.0289 19.9703L15.0699 19.4473C15.0899 19.1916 15.2688 18.9186 15.5931 18.7455C15.7469 18.6634 15.8976 18.5762 16.0449 18.4842C16.3562 18.2897 16.682 18.2711 16.9136 18.3816L17.3884 18.6082C18.4251 19.1031 19.6681 18.7173 20.2425 17.7225L21.0772 16.2766C21.6516 15.2817 21.3642 14.0124 20.4173 13.362L19.983 13.0637C19.7716 12.9185 19.6248 12.6276 19.6372 12.2617C19.6401 12.1747 19.6416 12.0874 19.6416 11.9998C19.6416 11.9122 19.6401 11.8249 19.6372 11.7379C19.6248 11.3721 19.7716 11.0812 19.983 10.936L20.4172 10.6377C21.3641 9.9873 21.6515 8.71801 21.0771 7.72315L20.2423 6.27728C19.668 5.28241 18.425 4.89666 17.3883 5.39149L16.9137 5.61803C16.682 5.72859 16.3562 5.71 16.045 5.51546C15.8977 5.42339 15.747 5.33618 15.5931 5.25407C15.2688 5.08103 15.0899 4.808 15.0699 4.55228L15.0289 4.02927C14.939 2.88402 13.9835 2.00049 12.8347 2.00049H11.1652ZM10.4665 4.14656C10.4951 3.78185 10.7994 3.50049 11.1652 3.50049H12.8347C13.2006 3.50049 13.5049 3.78185 13.5335 4.14656L13.5745 4.66957C13.6429 5.54141 14.2133 6.21797 14.8869 6.57742C15.0105 6.64338 15.1316 6.71345 15.25 6.78745C15.8983 7.19267 16.7702 7.34863 17.5598 6.97174L18.0344 6.7452C18.3646 6.58761 18.7604 6.71046 18.9433 7.02728L19.7781 8.47315C19.961 8.78996 19.8695 9.19417 19.5679 9.4013L19.1337 9.69954C18.4139 10.194 18.1123 11.0252 18.138 11.7885C18.1404 11.8586 18.1416 11.9291 18.1416 11.9998C18.1416 12.0706 18.1404 12.141 18.138 12.2111C18.1123 12.9745 18.4139 13.8056 19.1337 14.3001L19.568 14.5984C19.8696 14.8056 19.9611 15.2098 19.7782 15.5266L18.9434 16.9725C18.7605 17.2893 18.3647 17.4121 18.0345 17.2545L17.5597 17.0279C16.7701 16.651 15.8983 16.807 15.2499 17.2122C15.1315 17.2862 15.0105 17.3562 14.8869 17.4222C14.2133 17.7816 13.6429 18.4582 13.5745 19.33L13.5335 19.8531C13.5049 20.2178 13.2006 20.4991 12.8347 20.4991H11.1652C10.7994 20.4991 10.4951 20.2178 10.4665 19.8531L10.4254 19.33C10.3571 18.4582 9.78659 17.7816 9.11303 17.4222C8.98949 17.3563 8.86845 17.2862 8.75009 17.2123C8.10176 16.8071 7.22993 16.6511 6.44032 17.028L5.96571 17.2545C5.63556 17.4121 5.23975 17.2893 5.05683 16.9725L4.22206 15.5266C4.03914 15.2098 4.13066 14.8056 4.43221 14.5984L4.86618 14.3004C5.58609 13.8059 5.88765 12.9746 5.86187 12.2113C5.8595 12.1411 5.85831 12.0706 5.85831 11.9998C5.85831 11.929 5.8595 11.8585 5.86187 11.7884C5.88764 11.025 5.58608 10.1938 4.86618 9.69931L4.43232 9.4013C4.13078 9.19417 4.03926 8.78997 4.22217 8.47315L5.05695 7.02728C5.23986 6.71046 5.63568 6.58762 5.96583 6.7452L6.44026 6.97164C7.22987 7.34853 8.10171 7.19258 8.75004 6.78739C8.86842 6.71341 8.98948 6.64336 9.11303 6.57742C9.78659 6.21797 10.3571 5.54141 10.4254 4.66957L10.4665 4.14656Z" fill="#222222"/>
</g>
<defs>
<clipPath id="clip0_16_1279">
<rect width="24" height="24" fill="white"/>
</clipPath>
</defs>
</svg>
