<svg width="20" height="20" viewBox="0 0 20 20" fill="none" xmlns="http://www.w3.org/2000/svg">
<g clip-path="url(#clip0_116_1667)">
<path d="M3.98139 3.98139C4.27428 3.6885 4.74916 3.6885 5.04205 3.98139L10.0001 8.93947L14.9582 3.98139C15.2511 3.6885 15.726 3.6885 16.0189 3.98139C16.3118 4.27428 16.3118 4.74916 16.0189 5.04205L11.0608 10.0001L16.0189 14.9582C16.3118 15.2511 16.3118 15.726 16.0189 16.0189C15.726 16.3118 15.2511 16.3118 14.9582 16.0189L10.0001 11.0608L5.04205 16.0189C4.74916 16.3118 4.27428 16.3118 3.98139 16.0189C3.6885 15.726 3.6885 15.2511 3.98139 14.9582L8.93947 10.0001L3.98139 5.04205C3.6885 4.74916 3.6885 4.27428 3.98139 3.98139Z" fill="black" fill-opacity="0.32"/>
</g>
<defs>
<clipPath id="clip0_116_1667">
<rect width="20" height="20" fill="white"/>
</clipPath>
</defs>
</svg>
